<svg id="Layer_1" data-name="Layer 1" xmlns="http://www.w3.org/2000/svg" viewBox="0 0 848.14 567.14">
  <defs>
    <style>
      .cls-1 {
        fill: red;
      }

      .cls-2 {
        fill: green;
      }

      .cls-3 {
        fill: #0053f9;
        stroke: #00dbff;
        stroke-miterlimit: 10;
        stroke-width: 26px;
      }
    </style>
  </defs>
  <g>
    <rect class="cls-1" x="30.14" y="30.14" width="349" height="362"/>
    <path class="cls-2" d="M471,544H165.05c-14.11,0-28.31-.43-42.42,0H122l30,30V256.54c0-14.62.46-29.32,0-43.93,0-.2,0-.41,0-.61l-30,30H428c14.11,0,28.31.43,42.42,0H471l-30-30V529.46c0,14.63-.33,29.3,0,43.93V574c0,15.69,13.8,30.73,30,30s30-13.18,30-30V256.54c0-14.63.33-29.3,0-43.93V212a30.43,30.43,0,0,0-30-30H165.05c-14.13,0-28.29-.31-42.42,0H122a30.43,30.43,0,0,0-30,30V529.46c0,14.63-.33,29.3,0,43.93V574a30.43,30.43,0,0,0,30,30H428c14.13,0,28.29.31,42.42,0H471c15.69,0,30.73-13.8,30-30S487.82,544,471,544Z" transform="translate(-91.86 -181.86)"/>
  </g>
  <ellipse class="cls-3" cx="641.14" cy="367.64" rx="194" ry="186.5"/>
</svg>
